<mxfile host="Electron" agent="Mozilla/5.0 (Macintosh; Intel Mac OS X 10_15_7) AppleWebKit/537.36 (KHTML, like Gecko) draw.io/28.2.5 Chrome/138.0.7204.251 Electron/37.6.1 Safari/537.36" version="28.2.5">
  <diagram name="Page-1" id="AcjXc_MUMWwRNBmzqIVh">
    <mxGraphModel dx="796" dy="563" grid="1" gridSize="10" guides="1" tooltips="1" connect="1" arrows="1" fold="1" page="1" pageScale="1" pageWidth="850" pageHeight="1100" math="0" shadow="0">
      <root>
        <mxCell id="0" />
        <mxCell id="1" parent="0" />
        <object label="" id="KSLeaPpOPhuNrTygzHVW-4">
          <mxCell style="verticalLabelPosition=bottom;verticalAlign=top;html=1;shape=mxgraph.basic.rect;fillColor2=none;strokeWidth=1;size=20;indent=5;fillOpacity=100;fillColor=#1ba1e2;fontColor=#ffffff;strokeColor=#006EAF;" vertex="1" parent="1">
            <mxGeometry x="446.5" y="657.5" width="160" height="375" as="geometry" />
          </mxCell>
        </object>
        <object label="" id="KSLeaPpOPhuNrTygzHVW-5">
          <mxCell style="verticalLabelPosition=bottom;verticalAlign=top;html=1;shape=mxgraph.basic.rect;fillColor2=none;strokeWidth=1;size=20;indent=5;fillOpacity=100;fillColor=#1ba1e2;fontColor=#ffffff;strokeColor=#006EAF;" vertex="1" parent="1">
            <mxGeometry x="255" y="657.5" width="160" height="375" as="geometry" />
          </mxCell>
        </object>
        <object label="" id="KSLeaPpOPhuNrTygzHVW-8">
          <mxCell style="verticalLabelPosition=bottom;verticalAlign=top;html=1;shape=mxgraph.basic.rect;fillColor2=none;strokeWidth=1;size=20;indent=5;fillColor=#1ba1e2;strokeColor=#006EAF;fontColor=#ffffff;" vertex="1" parent="1">
            <mxGeometry x="255" y="242.5" width="160" height="375" as="geometry" />
          </mxCell>
        </object>
        <mxCell id="KSLeaPpOPhuNrTygzHVW-9" value="" style="endArrow=none;dashed=1;html=1;rounded=0;strokeWidth=2;" edge="1" parent="1">
          <mxGeometry width="50" height="50" relative="1" as="geometry">
            <mxPoint x="615" y="1042.5" as="sourcePoint" />
            <mxPoint x="620" y="232.5" as="targetPoint" />
          </mxGeometry>
        </mxCell>
        <mxCell id="KSLeaPpOPhuNrTygzHVW-10" value="&lt;h3 style=&quot;margin-top: 0px;&quot;&gt;&lt;span style=&quot;font-size: 14px;&quot;&gt;Build an analytics API&lt;/span&gt;&lt;/h3&gt;" style="text;html=1;whiteSpace=wrap;overflow=hidden;rounded=0;" vertex="1" parent="1">
          <mxGeometry x="255" y="177.5" width="160" height="50" as="geometry" />
        </mxCell>
        <mxCell id="KSLeaPpOPhuNrTygzHVW-11" value="&lt;font&gt;&lt;b&gt;Deliverables&lt;/b&gt;&lt;/font&gt;" style="text;html=1;align=center;verticalAlign=middle;whiteSpace=wrap;rounded=0;rotation=-90;fontSize=20;" vertex="1" parent="1">
          <mxGeometry x="195" y="387.5" width="60" height="30" as="geometry" />
        </mxCell>
        <mxCell id="KSLeaPpOPhuNrTygzHVW-12" value="&lt;h3 style=&quot;margin-top: 0px;&quot;&gt;&lt;ul&gt;&lt;li&gt;&lt;span style=&quot;font-size: 12px; font-weight: 400;&quot;&gt;Possibility of creating analytics based on the identified customer&#39;s behaviour on the front-end.&lt;/span&gt;&lt;/li&gt;&lt;li&gt;&lt;span style=&quot;font-size: 12px; font-weight: 400;&quot;&gt;Possibility analyzing experimental app feature versions.&lt;/span&gt;&lt;/li&gt;&lt;/ul&gt;&lt;/h3&gt;" style="text;html=1;whiteSpace=wrap;overflow=hidden;rounded=0;spacingLeft=-25;" vertex="1" parent="1">
          <mxGeometry x="255" y="667.5" width="160" height="362.5" as="geometry" />
        </mxCell>
        <mxCell id="KSLeaPpOPhuNrTygzHVW-13" value="&lt;font&gt;&lt;b&gt;Value capture&lt;/b&gt;&lt;/font&gt;" style="text;html=1;align=center;verticalAlign=middle;whiteSpace=wrap;rounded=0;rotation=-90;fontSize=20;" vertex="1" parent="1">
          <mxGeometry x="172.5" y="817.5" width="105" height="30" as="geometry" />
        </mxCell>
        <object label="" id="KSLeaPpOPhuNrTygzHVW-16">
          <mxCell style="verticalLabelPosition=bottom;verticalAlign=top;html=1;shape=mxgraph.basic.rect;fillColor2=none;strokeWidth=1;size=20;indent=5;fillColor=#1ba1e2;fontColor=#ffffff;strokeColor=#006EAF;" vertex="1" parent="1">
            <mxGeometry x="446.5" y="241.5" width="160" height="376" as="geometry" />
          </mxCell>
        </object>
        <mxCell id="KSLeaPpOPhuNrTygzHVW-20" value="&lt;h3 style=&quot;margin-top: 0px;&quot;&gt;&lt;font style=&quot;font-size: 14px;&quot;&gt;Introduce and utilize customer segmentation on the front-end&lt;/font&gt;&lt;/h3&gt;" style="text;html=1;whiteSpace=wrap;overflow=hidden;rounded=0;" vertex="1" parent="1">
          <mxGeometry x="444.5" y="172.5" width="164" height="60" as="geometry" />
        </mxCell>
        <mxCell id="KSLeaPpOPhuNrTygzHVW-22" value="&lt;h3 style=&quot;margin-top: 0px;&quot;&gt;&lt;p style=&quot;font-size: 12px; font-weight: 400;&quot;&gt;&lt;/p&gt;&lt;ul&gt;&lt;li&gt;&lt;span style=&quot;font-size: 12px; font-weight: 400;&quot;&gt;Define an analytics data model to include attributes necessary to track customer behaviour and create relevant analytics.&lt;br&gt;&lt;/span&gt;&lt;/li&gt;&lt;li&gt;&lt;span style=&quot;font-size: 12px; font-weight: 400;&quot;&gt;Design and implement an asynchronous pattern of probing (collecting and publishing) data from different sources on the front-end and midl-layer.&lt;/span&gt;&lt;/li&gt;&lt;li&gt;&lt;span style=&quot;font-size: 12px; font-weight: 400;&quot;&gt;Define the necessary data joins, transformation and staging area.&lt;/span&gt;&lt;/li&gt;&lt;li&gt;&lt;span style=&quot;font-size: 12px; font-weight: 400;&quot;&gt;Define a storage strategy for the data to persist the data in E.ON&#39;s analytic platform (Snowflake).&lt;/span&gt;&lt;/li&gt;&lt;/ul&gt;&lt;p&gt;&lt;/p&gt;&lt;/h3&gt;" style="text;html=1;whiteSpace=wrap;overflow=hidden;rounded=0;spacingLeft=-25;" vertex="1" parent="1">
          <mxGeometry x="255" y="257.5" width="158" height="350" as="geometry" />
        </mxCell>
        <mxCell id="KSLeaPpOPhuNrTygzHVW-24" value="" style="endArrow=none;dashed=1;html=1;rounded=0;strokeWidth=2;" edge="1" parent="1">
          <mxGeometry width="50" height="50" relative="1" as="geometry">
            <mxPoint x="425" y="1037.5" as="sourcePoint" />
            <mxPoint x="425" y="232.5" as="targetPoint" />
          </mxGeometry>
        </mxCell>
        <mxCell id="KSLeaPpOPhuNrTygzHVW-26" value="&lt;h3 style=&quot;margin-top: 0px;&quot;&gt;&lt;p style=&quot;font-size: 12px; font-weight: 400;&quot;&gt;&lt;/p&gt;&lt;ul&gt;&lt;li&gt;&lt;span style=&quot;font-size: 12px; font-weight: 400;&quot;&gt;Define segmentation attributes and rules in the business rules engine.&lt;/span&gt;&lt;/li&gt;&lt;li&gt;&lt;span style=&quot;font-size: 12px; font-weight: 400;&quot;&gt;Implement a mechanism to apply segmentation rules to the analytical data and calculate customer segmentation attributes for every customer in logged-in mode.&lt;/span&gt;&lt;/li&gt;&lt;li&gt;&lt;span style=&quot;font-size: 12px; font-weight: 400;&quot;&gt;Adapt the UI to be able to consume segmentation data an present a personalized experience to the customer.&lt;/span&gt;&lt;/li&gt;&lt;/ul&gt;&lt;p&gt;&lt;/p&gt;&lt;/h3&gt;" style="text;html=1;whiteSpace=wrap;overflow=hidden;rounded=0;spacing=2;spacingLeft=-25;" vertex="1" parent="1">
          <mxGeometry x="446.5" y="253.5" width="160" height="354" as="geometry" />
        </mxCell>
        <mxCell id="KSLeaPpOPhuNrTygzHVW-27" value="&lt;h3 style=&quot;margin-top: 0px;&quot;&gt;&lt;p style=&quot;font-size: 12px; font-weight: 400;&quot;&gt;&lt;/p&gt;&lt;ul&gt;&lt;li&gt;&lt;span style=&quot;font-size: 12px; font-weight: 400;&quot;&gt;Being able to shape the customer experience based on historical customer data, earlier&amp;nbsp; behaviour data and their segmentation.&lt;/span&gt;&lt;/li&gt;&lt;li&gt;&lt;span style=&quot;font-size: 12px; font-weight: 400;&quot;&gt;Possibility for the business to change the definition and attributes of customer segmentation in the rules engine.&lt;/span&gt;&lt;/li&gt;&lt;/ul&gt;&lt;p&gt;&lt;/p&gt;&lt;/h3&gt;" style="text;html=1;whiteSpace=wrap;overflow=hidden;rounded=0;spacing=2;spacingLeft=-25;" vertex="1" parent="1">
          <mxGeometry x="444.5" y="667.5" width="160.5" height="362.5" as="geometry" />
        </mxCell>
        <mxCell id="KSLeaPpOPhuNrTygzHVW-40" value="" style="shape=flexArrow;endArrow=classic;html=1;rounded=0;fillColor=#7D7D7D;" edge="1" parent="1">
          <mxGeometry width="50" height="50" relative="1" as="geometry">
            <mxPoint x="255" y="1070" as="sourcePoint" />
            <mxPoint x="730" y="1070" as="targetPoint" />
          </mxGeometry>
        </mxCell>
        <mxCell id="KSLeaPpOPhuNrTygzHVW-41" value="Investment in capabilities" style="edgeLabel;html=1;align=center;verticalAlign=middle;resizable=0;points=[];fontSize=15;fontStyle=1" vertex="1" connectable="0" parent="KSLeaPpOPhuNrTygzHVW-40">
          <mxGeometry x="-0.0753" y="-4" relative="1" as="geometry">
            <mxPoint x="-125" y="-24" as="offset" />
          </mxGeometry>
        </mxCell>
        <mxCell id="KSLeaPpOPhuNrTygzHVW-44" value="" style="shape=flexArrow;endArrow=classic;html=1;rounded=0;fillColor=#7D7D7D;" edge="1" parent="1">
          <mxGeometry width="50" height="50" relative="1" as="geometry">
            <mxPoint x="255" y="1170" as="sourcePoint" />
            <mxPoint x="736.5" y="1170" as="targetPoint" />
          </mxGeometry>
        </mxCell>
        <mxCell id="KSLeaPpOPhuNrTygzHVW-45" value="Shape the customer experience" style="edgeLabel;html=1;align=center;verticalAlign=middle;resizable=0;points=[];fontSize=15;fontStyle=1" vertex="1" connectable="0" parent="KSLeaPpOPhuNrTygzHVW-44">
          <mxGeometry x="-0.0753" y="-4" relative="1" as="geometry">
            <mxPoint x="-107" y="-24" as="offset" />
          </mxGeometry>
        </mxCell>
        <mxCell id="KSLeaPpOPhuNrTygzHVW-46" value="" style="shape=flexArrow;endArrow=classic;html=1;rounded=0;fillColor=#7D7D7D;" edge="1" parent="1">
          <mxGeometry width="50" height="50" relative="1" as="geometry">
            <mxPoint x="255" y="1120" as="sourcePoint" />
            <mxPoint x="735.5" y="1120" as="targetPoint" />
          </mxGeometry>
        </mxCell>
        <mxCell id="KSLeaPpOPhuNrTygzHVW-47" value="Increased customer insight" style="edgeLabel;html=1;align=center;verticalAlign=middle;resizable=0;points=[];fontSize=15;fontStyle=1" vertex="1" connectable="0" parent="KSLeaPpOPhuNrTygzHVW-46">
          <mxGeometry x="-0.0753" y="-4" relative="1" as="geometry">
            <mxPoint x="-117" y="-24" as="offset" />
          </mxGeometry>
        </mxCell>
      </root>
    </mxGraphModel>
  </diagram>
</mxfile>
